<?xml version="1.0" standalone="no"?>
<!DOCTYPE svg PUBLIC "-//W3C//DTD SVG 20010904//EN"
 "http://www.w3.org/TR/2001/REC-SVG-20010904/DTD/svg10.dtd">
<svg version="1.0" xmlns="http://www.w3.org/2000/svg"
 width="700.000000pt" height="700.000000pt" viewBox="0 0 700.000000 700.000000"
 preserveAspectRatio="xMidYMid meet">
<metadata>
Created by potrace 1.14, written by Peter Selinger 2001-2017
</metadata>
<g transform="translate(0.000000,700.000000) scale(0.100000,-0.100000)"
fill="#000000" stroke="none">
<path d="M5832 6054 c-519 -95 -946 -175 -948 -177 -3 -2 -42 -135 -89 -296
-71 -248 -82 -295 -74 -320 11 -32 48 -61 76 -61 10 0 181 31 380 70 199 38
370 67 380 63 37 -13 63 -46 63 -79 0 -32 -264 -561 -1366 -2740 -288 -569
-295 -582 -327 -588 -115 -20 -348 -48 -354 -42 -4 3 37 219 90 479 54 259 97
480 97 490 0 28 -54 77 -85 77 -15 0 -123 -29 -241 -65 -118 -36 -228 -65
-244 -65 -36 0 -80 39 -80 70 0 11 45 242 100 512 55 270 100 506 100 524 0
24 -8 39 -31 58 -17 14 -38 26 -47 26 -9 1 -178 -36 -375 -81 -351 -81 -358
-82 -392 -66 -23 11 -37 26 -41 44 -5 20 78 1609 99 1898 l2 29 -690 123
c-379 67 -699 122 -711 123 -11 0 -109 -66 -220 -147 -110 -82 -289 -213 -396
-292 l-197 -144 32 -56 c123 -221 3034 -5312 3050 -5335 58 -81 198 -87 268
-10 15 16 638 1120 1386 2454 749 1334 1488 2652 1644 2930 156 278 290 523
298 545 38 106 -56 228 -174 224 -22 -1 -465 -79 -983 -175z"/>
</g>
</svg>
